<?xml version="1.0" standalone="no"?>
<!DOCTYPE svg PUBLIC "-//W3C//DTD SVG 20010904//EN"
 "http://www.w3.org/TR/2001/REC-SVG-20010904/DTD/svg10.dtd">
<svg version="1.0" xmlns="http://www.w3.org/2000/svg"
 width="260.000000pt" height="260.000000pt" viewBox="0 0 260.000000 260.000000"
 preserveAspectRatio="xMidYMid meet">
<metadata>
Created by potrace 1.14, written by Peter Selinger 2001-2017
</metadata>
<g transform="translate(0.000000,260.000000) scale(0.100000,-0.100000)"
fill="#000000" stroke="none">
<path d="M0 1300 l0 -1300 1300 0 1300 0 0 1300 0 1300 -1300 0 -1300 0 0
-1300z m1608 914 c232 -48 424 -202 522 -418 42 -92 61 -181 61 -289 l0 -93
45 -24 c101 -53 196 -180 229 -305 67 -261 -107 -539 -373 -594 -36 -7 -287
-11 -772 -11 -485 0 -736 4 -772 11 -265 55 -440 334 -373 592 28 106 93 210
170 267 l41 31 -30 61 c-60 120 -34 268 63 365 63 63 121 87 217 91 67 3 90 0
133 -18 28 -13 53 -21 55 -19 1 2 17 26 35 52 161 239 463 360 749 301z"/>
</g>
</svg>
